<svg width="360" height="121" viewBox="0 0 360 121" fill="none" xmlns="http://www.w3.org/2000/svg">
<path d="M0.844238 40.7532L31.177 28.0924L71.0106 106.959L57.6789 112.324L0.844238 40.7532Z" fill="#F9AF42"/>
<path d="M62.2323 116.729C57.175 110.911 11.4292 36.3286 11.4292 36.3286L17.5171 32.8736C17.5171 32.8736 67.2897 122.548 62.2323 116.729Z" fill="black" fill-opacity="0.2"/>
<path d="M10.4028 28.8522L36.3059 19.6174L73.2208 106.783L57.6792 112.323L10.4028 28.8522Z" fill="#ED4039"/>
<path d="M58.7886 112.459L22.6477 24.4866L29.2412 22.1359L58.7886 112.459Z" fill="black" fill-opacity="0.2"/>
<path d="M58.2215 23.0065C64.8435 20.6457 68.099 12.806 65.4929 5.49598L80.9088 -2.76964e-05L113.94 92.6511L98.5245 98.1472C95.9183 90.8372 88.4374 86.8251 81.8155 89.1859C75.1936 91.5468 71.938 99.3865 74.5442 106.697L58.2718 112.498L25.2402 19.8467L41.5126 14.0453C44.1187 21.3553 51.5996 25.3674 58.2215 23.0065Z" fill="#2E42A5"/>
<path d="M67.9171 8.16587C68.02 8.45431 68.1132 8.74511 68.1969 9.03774L68.6776 8.90037C68.852 9.51072 68.986 10.129 69.0788 10.751L68.5843 10.8248C68.6747 11.4299 68.7247 12.0383 68.7338 12.6458L69.2338 12.6382C69.2433 13.2707 69.2101 13.9025 69.1336 14.5292L68.6373 14.4686C68.5636 15.0719 68.4483 15.6701 68.2907 16.2589L68.7737 16.3881C68.6112 16.9954 68.4053 17.5934 68.1555 18.1776L67.6958 17.9811C67.459 18.535 67.1811 19.0761 66.8616 19.6006L67.2886 19.8607C66.9642 20.3931 66.5985 20.9089 66.1909 21.4042L65.8048 21.0865C65.4253 21.5477 65.0077 21.991 64.5515 22.4127L64.8909 22.7799C64.4372 23.1993 63.947 23.5978 63.4199 23.9724L63.1302 23.5649C62.6448 23.9098 62.1263 24.2343 61.5741 24.5357L61.8136 24.9746C61.2739 25.2691 60.7036 25.5418 60.1026 25.7903L59.9116 25.3282C59.6313 25.4441 59.344 25.5546 59.0495 25.6596C58.7476 25.7673 58.4465 25.8661 58.1466 25.9562L58.2905 26.435C57.6541 26.6263 57.0221 26.7799 56.3963 26.8975L56.304 26.4061C55.671 26.5251 55.045 26.6061 54.4283 26.6514L54.4649 27.15C53.8049 27.1985 53.1545 27.2071 52.5162 27.1783L52.5388 26.6788C51.8998 26.6499 51.2738 26.5822 50.6633 26.4784L50.5794 26.9713C49.9296 26.8607 49.2964 26.7103 48.6827 26.5229L48.8287 26.0447C48.2208 25.8591 47.633 25.6359 47.0684 25.3782L46.8607 25.8331C46.2638 25.5606 45.6915 25.2507 45.1473 24.9065L45.4146 24.4839C44.8806 24.1462 44.3749 23.7745 43.9008 23.372L43.5772 23.7531C43.0791 23.3302 42.6143 22.8743 42.1865 22.3888L42.5616 22.0583C42.1471 21.5878 41.7689 21.0888 41.4306 20.5648L41.0105 20.8359C40.6585 20.2905 40.3477 19.7186 40.082 19.1238L40.5386 18.9199C40.4115 18.6355 40.2953 18.3457 40.1902 18.051L40.0223 17.58L39.5513 17.7479L38.6265 18.0776L38.7944 18.5486L36.9448 19.208L36.7769 18.737L34.9273 19.3964L35.0952 19.8674L33.2456 20.5268L33.0777 20.0559L31.2281 20.7153L31.396 21.1862L29.5464 21.8456L29.3785 21.3747L28.4537 21.7044L27.9827 21.8723L28.1506 22.3433L28.4864 23.2852L28.9574 23.1173L29.629 25.0011L29.1581 25.169L29.8297 27.0529L30.3006 26.885L30.9723 28.7689L30.5013 28.9368L31.1729 30.8206L31.6439 30.6527L32.3155 32.5366L31.8446 32.7045L32.5162 34.5883L32.9871 34.4204L33.6588 36.3043L33.1878 36.4722L33.8594 38.3561L34.3304 38.1881L35.002 40.072L34.5311 40.2399L35.2027 42.1238L35.6736 41.9559L36.3453 43.8397L35.8743 44.0076L36.5459 45.8915L37.0169 45.7236L37.6885 47.6074L37.2176 47.7753L37.8892 49.6592L38.3601 49.4913L39.0318 51.3751L38.5608 51.5431L39.2324 53.4269L39.7034 53.259L40.375 55.1429L39.9041 55.3108L40.5757 57.1946L41.0466 57.0267L41.7183 58.9106L41.2473 59.0785L41.9189 60.9623L42.3899 60.7944L43.0615 62.6783L42.5906 62.8462L43.2622 64.7301L43.7331 64.5622L44.4048 66.446L43.9338 66.6139L44.6054 68.4978L45.0764 68.3299L45.748 70.2137L45.277 70.3816L45.9487 72.2655L46.4196 72.0976L47.0913 73.9814L46.6203 74.1493L47.2919 76.0332L47.7629 75.8653L48.4345 77.7492L47.9635 77.9171L48.6352 79.8009L49.1061 79.633L49.7778 81.5169L49.3068 81.6848L49.9784 83.5686L50.4494 83.4007L51.121 85.2846L50.65 85.4525L51.3217 87.3364L51.7926 87.1684L52.4643 89.0523L51.9933 89.2202L52.6649 91.1041L53.1359 90.9362L53.8075 92.82L53.3365 92.9879L54.0082 94.8718L54.4791 94.7039L55.1508 96.5877L54.6798 96.7556L55.3514 98.6395L55.8224 98.4716L56.494 100.355L56.023 100.523L56.6947 102.407L57.1656 102.239L57.8373 104.123L57.3663 104.291L58.0379 106.175L58.5089 106.007L59.1805 107.891L58.7095 108.059L59.0454 109.001L59.2133 109.472L59.6842 109.304L60.609 108.974L60.4411 108.503L62.2907 107.844L62.4586 108.315L64.3082 107.655L64.1403 107.184L65.9899 106.525L66.1578 106.996L68.0075 106.336L67.8395 105.865L69.6892 105.206L69.8571 105.677L70.7819 105.347L71.2528 105.179L71.0849 104.708C70.9827 104.422 70.8927 104.132 70.8146 103.839L70.3315 103.967C70.168 103.354 70.0547 102.729 69.9899 102.097L70.4872 102.046C70.4252 101.442 70.4091 100.831 70.4373 100.219L69.9378 100.196C69.9668 99.5655 70.0408 98.9342 70.158 98.3068L70.6495 98.3986C70.7612 97.8008 70.9136 97.206 71.1049 96.6192L70.6296 96.4642C70.8251 95.8648 71.0597 95.2739 71.3317 94.6961L71.7841 94.9091C72.0441 94.3568 72.3395 93.8167 72.6685 93.2933L72.2452 93.0272C72.5808 92.4932 72.9503 91.9761 73.352 91.4802L73.7405 91.7949C74.1251 91.3201 74.5401 90.8654 74.9839 90.4349L74.6357 90.076C75.088 89.6371 75.5694 89.2225 76.0783 88.8361L76.3807 89.2343C76.8659 88.8658 77.3769 88.524 77.9121 88.2124L77.6606 87.7803C78.2034 87.4643 78.7704 87.1783 79.3603 86.9261L79.5569 87.3858C79.8376 87.2658 80.1237 87.1537 80.4149 87.0498C80.7062 86.946 80.9987 86.8519 81.292 86.7672L81.1534 86.2868C81.7698 86.109 82.3899 85.9717 83.0102 85.873L83.0887 86.3668C83.7003 86.2695 84.3123 86.2111 84.9212 86.1894L84.9035 85.6898C85.5421 85.6671 86.1772 85.6837 86.8051 85.7374L86.7625 86.2356C87.3786 86.2883 87.9876 86.3779 88.5858 86.5023L88.6877 86.0128C89.3124 86.1428 89.9257 86.3095 90.5235 86.5107L90.364 86.9845C90.95 87.1818 91.5204 87.4132 92.0711 87.6764L92.2867 87.2253C92.8629 87.5007 93.4184 87.8099 93.949 88.1504L93.679 88.5712C94.1984 88.9046 94.6927 89.2688 95.1574 89.6612L95.4799 89.2792C95.9676 89.6909 96.4243 90.133 96.8455 90.6028L96.4732 90.9366C96.8826 91.3932 97.2564 91.8763 97.5904 92.3832L98.008 92.1082C98.3572 92.6383 98.665 93.1941 98.9266 93.7729L98.471 93.9788C98.5959 94.2551 98.7097 94.5367 98.8119 94.8233L98.9798 95.2943L99.4508 95.1264L100.376 94.7967L100.208 94.3257L102.057 93.6663L102.225 94.1373L104.075 93.4779L103.907 93.0069L105.756 92.3475L105.924 92.8184L107.774 92.159L107.606 91.6881L109.456 91.0286L109.624 91.4996L110.548 91.1699L111.019 91.002L110.851 90.531L110.516 89.5891L110.045 89.757L109.373 87.8732L109.844 87.7052L109.172 85.8214L108.701 85.9893L108.03 84.1054L108.501 83.9375L107.829 82.0537L107.358 82.2216L106.687 80.3377L107.158 80.1698L106.486 78.286L106.015 78.4539L105.343 76.57L105.814 76.4021L105.143 74.5182L104.672 74.6861L104 72.8023L104.471 72.6344L103.799 70.7505L103.328 70.9184L102.657 69.0346L103.128 68.8667L102.456 66.9828L101.985 67.1507L101.314 65.2669L101.785 65.099L101.113 63.2151L100.642 63.383L99.9703 61.4991L100.441 61.3312L99.7696 59.4474L99.2987 59.6153L98.627 57.7314L99.098 57.5635L98.4264 55.6797L97.9554 55.8476L97.2838 53.9637L97.7548 53.7958L97.0831 51.912L96.6122 52.0799L95.9405 50.196L96.4115 50.0281L95.7399 48.1442L95.2689 48.3121L94.5973 46.4283L95.0683 46.2604L94.3966 44.3765L93.9257 44.5444L93.254 42.6606L93.725 42.4927L93.0534 40.6088L92.5824 40.7767L91.9108 38.8929L92.3818 38.725L91.7101 36.8411L91.2392 37.009L90.5675 35.1251L91.0385 34.9572L90.3669 33.0734L89.8959 33.2413L89.2243 31.3574L89.6953 31.1895L89.0236 29.3057L88.5527 29.4736L87.8811 27.5897L88.352 27.4218L87.6804 25.5379L87.2094 25.7058L86.5378 23.822L87.0088 23.6541L86.3371 21.7702L85.8662 21.9381L85.1946 20.0543L85.6655 19.8864L84.9939 18.0025L84.5229 18.1704L83.8513 16.2866L84.3223 16.1187L83.6506 14.2348L83.1797 14.4027L82.5081 12.5188L82.979 12.3509L82.3074 10.4671L81.8364 10.635L81.1648 8.75113L81.6358 8.58322L80.9641 6.69936L80.4932 6.86727L79.8216 4.98341L80.2925 4.81551L79.9567 3.87358L79.7888 3.40261L79.3178 3.57052L78.393 3.90023L78.5609 4.37119L76.7113 5.0306L76.5434 4.55964L74.6938 5.21905L74.8617 5.69002L73.0121 6.34943L72.8442 5.87847L70.9946 6.53788L71.1625 7.00885L69.3129 7.66826L69.145 7.19729L68.2202 7.527L67.7492 7.69491L67.9171 8.16587Z" stroke="white" stroke-dasharray="2 2"/>
<path d="M152.932 70.6284V85.2842H146.418C134.425 85.2842 128.428 79.3133 128.428 67.3715V55.8949H123V41.5492H128.428V31.0032H145.643V41.5492H152.777V55.8949H145.643V67.6817C145.643 68.7156 145.876 69.4652 146.341 69.9305C146.858 70.3957 147.685 70.6284 148.822 70.6284H152.932Z" fill="#343434"/>
<path d="M176.703 41.5492V85.2842H159.488V41.5492H176.703Z" fill="#343434"/>
<path d="M182.152 63.4167C182.152 58.8675 183.082 54.9127 184.943 51.5525C186.856 48.1405 189.493 45.5298 192.853 43.7205C196.265 41.9111 200.142 41.0064 204.485 41.0064C210.171 41.0064 214.953 42.609 218.83 45.8142C222.759 49.0193 225.241 53.4652 226.275 59.1518H208.052C207.38 56.8772 206.061 55.7398 204.097 55.7398C202.701 55.7398 201.59 56.386 200.762 57.6785C199.987 58.9709 199.599 60.8836 199.599 63.4167C199.599 65.9499 199.987 67.8626 200.762 69.155C201.59 70.4474 202.701 71.0936 204.097 71.0936C206.061 71.0936 207.38 69.9563 208.052 67.6817H226.275C225.241 73.3683 222.759 77.8141 218.83 81.0193C214.953 84.2245 210.171 85.827 204.485 85.827C200.142 85.827 196.265 84.9224 192.853 83.113C189.493 81.3036 186.856 78.7188 184.943 75.3586C183.082 71.9466 182.152 67.966 182.152 63.4167Z" fill="#343434"/>
<path d="M259.725 85.2842L248.947 67.8368V85.2842H231.732V27.9014H248.947V57.9111L259.88 41.5492H279.887L263.525 63.5718L280.274 85.2842H259.725Z" fill="#343434"/>
<path d="M326.474 63.029C326.474 64.218 326.396 65.3553 326.241 66.441H298.558C298.816 70.2148 300.393 72.1017 303.288 72.1017C305.149 72.1017 306.493 71.2487 307.32 69.5427H325.543C324.923 72.6445 323.605 75.4361 321.589 77.9175C319.624 80.3472 317.117 82.2859 314.067 83.7334C311.068 85.1292 307.76 85.827 304.141 85.827C299.799 85.827 295.921 84.9224 292.51 83.113C289.149 81.3036 286.513 78.7188 284.6 75.3586C282.739 71.9466 281.808 67.966 281.808 63.4167C281.808 58.8675 282.739 54.9127 284.6 51.5525C286.513 48.1405 289.149 45.5298 292.51 43.7205C295.921 41.9111 299.799 41.0064 304.141 41.0064C308.484 41.0064 312.335 41.9111 315.695 43.7205C319.107 45.4781 321.744 48.0113 323.605 51.3198C325.518 54.6284 326.474 58.5314 326.474 63.029ZM309.026 58.9192C309.026 57.4717 308.561 56.386 307.631 55.6623C306.7 54.8869 305.537 54.4991 304.141 54.4991C301.091 54.4991 299.308 55.9725 298.791 58.9192H309.026Z" fill="#343434"/>
<path d="M359.136 70.6284V85.2842H352.623C340.629 85.2842 334.632 79.3133 334.632 67.3715V55.8949H329.204V41.5492H334.632V31.0032H351.847V41.5492H358.981V55.8949H351.847V67.6817C351.847 68.7156 352.08 69.4652 352.545 69.9305C353.062 70.3957 353.889 70.6284 355.027 70.6284H359.136Z" fill="#343434"/>
<path d="M177 30C177 34.9706 172.971 39 168 39C163.029 39 159 34.9706 159 30C159 25.0294 163.029 21 168 21C172.971 21 177 25.0294 177 30Z" fill="#ED4039"/>
</svg>
